<?xml version="1.0"?>
<svg viewBox="0 0 32 32" xmlns="http://www.w3.org/2000/svg">
    <title />
    <g data-name="Layer 2" id="Layer_2">
        <path
            fill='#fff'
            d="M16,18a3,3,0,1,0,3,3A3,3,0,0,0,16,18Zm0,0a3,3,0,1,0,3,3A3,3,0,0,0,16,18ZM25,2H7A1,1,0,0,0,6,3V29a1,1,0,0,0,1,1H25a1,1,0,0,0,1-1V3A1,1,0,0,0,25,2ZM16,26a5,5,0,1,1,5-5A5,5,0,0,1,16,26Zm6-13a1,1,0,0,1-1,1H11a1,1,0,0,1-1-1V7a1,1,0,0,1,1-1H21a1,1,0,0,1,1,1Zm-6,5a3,3,0,1,0,3,3A3,3,0,0,0,16,18Zm0,0a3,3,0,1,0,3,3A3,3,0,0,0,16,18Zm0,0a3,3,0,1,0,3,3A3,3,0,0,0,16,18Z" />
        <rect height="4" width="8" x="12" y="8" />
    </g>
</svg>